<?xml version="1.0" encoding="utf-8"?>
<!-- Generator: Adobe Illustrator 18.1.1, SVG Export Plug-In . SVG Version: 6.00 Build 0)  -->
<!DOCTYPE svg PUBLIC "-//W3C//DTD SVG 1.1//EN" "http://www.w3.org/Graphics/SVG/1.1/DTD/svg11.dtd">
<svg version="1.1" id="Layer_1" xmlns="http://www.w3.org/2000/svg" xmlns:xlink="http://www.w3.org/1999/xlink" x="0px" y="0px"
	 viewBox="0 0 185 30" enable-background="new 0 0 185 30" xml:space="preserve">
<g>
	<path fill="#00B3DF" d="M2,0h4.1v28.5H2V0z"/>
	<path fill="#00B3DF" d="M9.9,0h3.9L20,17.2h0.1V0h4.1v28.5h-3.8l-6.2-17.1H14v17.1H9.9V0z"/>
	<path fill="#00B3DF" d="M30.5,3.8h-4.7V0h13.5v3.8h-4.7v24.6h-4.1V3.8z"/>
	<path fill="#00B3DF" d="M41.1,0h12.2v3.8h-8.1v8.4h7V16h-7v8.4h8.1v4.1H41.1V0z"/>
	<path fill="#00B3DF" d="M55.9,0h6.6c4.8,0,7.2,2.8,7.2,8.4c0,3.3-0.9,5.7-3.5,7.1l4.4,13h-4.3l-3.8-12.2H60v12.2h-4.1V0z M60,12.7
		h2.3c2.8,0,3.3-1.6,3.3-4.4c0-2.9-0.5-4.4-3.5-4.4H60V12.7z"/>
	<path fill="#00B3DF" d="M72.8,0h3.9l6.2,17.2H83V0H87v28.5h-3.8L77,11.4h-0.1v17.1h-4.1V0z"/>
	<path fill="#FFFFFF" d="M95.2,0h3.4l6.4,28.5h-4.1l-1.2-6.1h-5.6L93,28.5h-4.1L95.2,0z M97,8.2L97,8.2l-2.1,10.3H99L97,8.2z"/>
	<path fill="#FFFFFF" d="M113.5,28.5h-3.6L104.1,0h4.3l3.2,19.9h0.1L115,0h4.3L113.5,28.5z"/>
	<path fill="#FFFFFF" d="M121.8,0H134v3.8h-8.1v8.4h7V16h-7v8.4h8.1v4.1h-12.2V0z"/>
	<path fill="#FFFFFF" d="M136.4,0h3.9l6.2,17.2h0.1V0h4.1v28.5h-3.8l-6.2-17.1h-0.1v17.1h-4.1V0z"/>
	<path fill="#FFFFFF" d="M167.6,22.1c0,3.7-3,6.6-6.6,6.6s-6.6-2.9-6.6-6.6V0h4.1v21.7c0,2,1.1,3,2.5,3s2.5-1,2.5-3V0h4.1V22.1z"/>
	<path fill="#FFFFFF" d="M171.4,0h12.2v3.8h-8.1v8.4h7V16h-7v8.4h8.1v4.1h-12.2V0z"/>
</g>
</svg>
